<svg t="1714715686812" class="icon" viewBox="0 0 1024 1024" version="1.1" xmlns="http://www.w3.org/2000/svg" p-id="7705" width="200" height="200"><path d="M317.62963 109.985185c-35.081481 0-70.162963 7.585185-102.4 20.859259-32.237037 14.222222-61.62963 34.133333-86.281482 59.733334-24.651852 25.6-43.614815 54.992593-55.940741 88.177778-11.377778 33.185185-17.066667 68.266667-16.118518 103.348148v13.274074c0 61.62963 17.066667 125.155556 52.148148 191.525926 29.392593 55.940741 72.059259 112.82963 121.362963 164.029629 46.459259 47.407407 96.711111 87.22963 146.962963 116.622223 36.02963 21.807407 90.074074 46.459259 136.533333 46.459259 65.422222 0 157.392593-47.407407 246.518519-126.103704 94.814815-84.385185 165.925926-188.681481 195.318518-286.340741 4.740741-16.118519-4.740741-32.237037-20.859259-36.977777-2.844444-0.948148-5.688889-0.948148-8.533333-0.948149-13.274074 0-24.651852 8.533333-28.444445 20.85926-26.548148 87.22963-91.022222 182.044444-177.303703 258.844444C658.962963 797.392593 570.785185 853.333333 514.844444 853.333333c-64.474074 0-169.718519-73.007407-240.829629-145.066666-32.237037-32.237037-61.62963-68.266667-86.281482-107.140741l-3.792592-6.637037h127.051852c13.274074 0 24.651852-8.533333 28.444444-20.859259l35.081482-103.348149 64.474074 192.474075c3.792593 11.377778 14.222222 18.962963 25.6 20.859259h2.844444c10.42963 0 20.859259-5.688889 26.548148-15.170371l67.318519-119.466666 21.807407 32.237037c5.688889 8.533333 15.17037 13.274074 24.651852 13.274074h90.074074c17.066667 0 30.340741-13.274074 30.340741-30.340741 0-17.066667-13.274074-30.340741-30.340741-30.340741h-73.955556l-40.77037-58.785185c-5.688889-8.533333-15.17037-13.274074-24.651852-13.274074h-0.948148c-10.42963 0-19.911111 6.637037-24.651852 15.170371L474.074074 579.318519l-71.111111-212.385186c-3.792593-12.325926-15.17037-20.859259-28.444444-20.859259s-24.651852 8.533333-28.444445 20.859259l-57.837037 167.822223H164.02963c-2.844444 0-5.688889 0.948148-8.533334 1.896296H151.703704l-1.896297-3.792593c-21.807407-48.355556-32.237037-94.814815-32.237037-137.481481v-15.170371c-2.844444-54.044444 18.014815-108.088889 54.992593-147.911111 37.925926-39.822222 90.074074-62.577778 145.066667-62.577777 71.111111 0 135.585185 36.02963 171.614814 97.659259 5.688889 8.533333 15.17037 14.222222 25.6 14.222222s19.911111-5.688889 25.6-14.222222c18.014815-28.444444 42.666667-52.148148 73.007408-68.266667 29.392593-16.118519 62.577778-24.651852 96.711111-24.651852 46.459259 0 91.022222 16.118519 127.051852 45.511111 36.02963 29.392593 60.681481 70.162963 70.162963 114.725926 2.844444 14.222222 15.17037 23.703704 29.392592 23.703704 1.896296 0 3.792593 0 5.688889-0.948148 16.118519-3.792593 26.548148-18.962963 23.703704-35.081482-12.325926-58.785185-44.562963-111.881481-91.022222-149.807407-46.459259-37.925926-105.244444-58.785185-164.977778-58.785185h-0.948148c-72.059259 0-142.222222 30.340741-190.577778 83.437037l-2.844444 3.792592-2.844445-3.792592c-49.303704-54.992593-120.414815-87.22963-195.318518-87.22963z" fill="#0097FF" p-id="7706"></path></svg>